<?xml version="1.0" encoding="UTF-8"?>
<svg xmlns="http://www.w3.org/2000/svg" width="3750" height="3750" viewBox="0 0 3750 3750">
<rect x="-375" y="-375" width="4500" height="4500" fill="rgb(44.309998%, 81.25%, 100%)" fill-opacity="1"/>
<path fill-rule="nonzero" fill="rgb(100%, 100%, 100%)" fill-opacity="1" d="M 1536.320312 1472.871094 C 1536.320312 1472.871094 1304.339844 1609.941406 1288.75 1639.398438 C 1273.160156 1668.859375 1258.738281 1709.171875 1258.738281 1709.171875 C 1258.738281 1709.171875 848.621094 1906.75 828.617188 1973.941406 C 808.609375 2041.140625 748.59375 2454.089844 783.601562 2609.128906 C 818.613281 2764.171875 1018.671875 3129.277344 1051.179688 3149.285156 C 1083.691406 3169.289062 1196.21875 3211.800781 1196.21875 3211.800781 L 1107.609375 3750 L 2691.980469 3750 L 2621.25 3155.859375 C 2621.25 3155.859375 2946.609375 2887.082031 2974.898438 2745.621094 C 3003.199219 2604.160156 2755.640625 1892.488281 2691.980469 1800.75 C 2628.320312 1709 2267.589844 1589.171875 2267.589844 1589.171875 C 2267.589844 1589.171875 2313.519531 1528.621094 2059.339844 1420.558594 C 1805.140625 1312.511719 1536.320312 1472.871094 1536.320312 1472.871094 Z M 1536.320312 1472.871094 "/>
<path fill-rule="nonzero" fill="rgb(92.576599%, 92.576599%, 92.576599%)" fill-opacity="1" d="M 2490.738281 2269.480469 C 2490.738281 2269.480469 2429.800781 2454.949219 2351.351562 2465.339844 C 2272.898438 2475.71875 2188.210938 2408.238281 2050.96875 2476.179688 L 2170.808594 2657.101562 L 2381.769531 2717.128906 L 2559.140625 2716.738281 Z M 2490.738281 2269.480469 "/>
<path fill-rule="nonzero" fill="rgb(44.309998%, 81.25%, 100%)" fill-opacity="1" d="M 2050.96875 2476.179688 L 2162.378906 2497.851562 L 2174 2717.128906 L 2092.730469 2717.128906 C 2092.730469 2717.128906 2087.980469 2620.800781 2050.96875 2476.179688 Z M 2050.96875 2476.179688 "/>
<path fill-rule="nonzero" fill="rgb(44.309998%, 81.25%, 100%)" fill-opacity="1" d="M 2024.371094 1374.121094 L 1563.820312 1406.910156 L 1508.820312 1538.820312 C 1508.820312 1538.820312 1630.371094 2097.800781 1770.859375 2570.488281 L 2037.230469 2422.390625 C 2076.441406 2001.171875 2114.289062 1530.820312 2094.300781 1467 Z M 2024.371094 1374.121094 "/>
<path fill-rule="nonzero" fill="rgb(32.93457%, 68.554688%, 86.71875%)" fill-opacity="1" d="M 2024.378906 1374.121094 L 1563.828125 1406.910156 L 1508.820312 1538.820312 C 1508.820312 1538.820312 1527.070312 1622.640625 1557.398438 1752.128906 L 1609.96875 1762.238281 L 1553.890625 1641.628906 C 1553.890625 1641.628906 1572.679688 1507.46875 1612.640625 1507.46875 C 1652.609375 1507.46875 2053.96875 1508.808594 2053.96875 1508.808594 L 2099.679688 1563.890625 C 2100.300781 1515.070312 2098.71875 1481.089844 2094.300781 1467 Z M 2024.378906 1374.121094 "/>
<path fill-rule="nonzero" fill="rgb(32.93457%, 68.554688%, 86.71875%)" fill-opacity="1" d="M 1885.238281 2143.03125 C 1837.519531 2144.941406 2033.039062 2419.199219 1921.28125 2384.699219 C 1839.808594 2359.558594 1756.109375 2334.710938 1699.449219 2317.980469 C 1722.320312 2402.5 1746.289062 2487.800781 1770.859375 2570.488281 L 2037.230469 2422.390625 C 2043.378906 2356.421875 2049.449219 2289.300781 2055.308594 2222.671875 C 1997.289062 2193.570312 1935.949219 2163.359375 1898.179688 2146.449219 C 1892.679688 2143.980469 1888.421875 2142.910156 1885.238281 2143.03125 Z M 1885.238281 2143.03125 "/>
<path fill-rule="nonzero" fill="rgb(0%, 0%, 0%)" fill-opacity="1" d="M 1594.03125 1293.609375 C 1588.089844 1294.03125 1582.558594 1296.789062 1578.660156 1301.289062 C 1578.660156 1301.289062 1448.539062 1451.761719 1483.511719 1670.519531 C 1485.460938 1682.78125 1496.980469 1691.128906 1509.238281 1689.179688 C 1515.128906 1688.238281 1520.410156 1685 1523.910156 1680.160156 C 1527.410156 1675.328125 1528.851562 1669.300781 1527.898438 1663.410156 C 1496.160156 1464.851562 1612.640625 1330.75 1612.640625 1330.75 C 1616.558594 1326.238281 1618.519531 1320.359375 1618.089844 1314.398438 C 1617.660156 1308.449219 1614.878906 1302.910156 1610.359375 1299 C 1605.851562 1295.109375 1599.96875 1293.171875 1594.03125 1293.609375 Z M 1594.03125 1293.609375 "/>
<path fill-rule="nonzero" fill="rgb(0%, 0%, 0%)" fill-opacity="1" d="M 1993.339844 1303 C 1981.589844 1298.988281 1968.808594 1305.261719 1964.800781 1317.011719 C 1962.871094 1322.660156 1963.269531 1328.839844 1965.910156 1334.191406 C 1968.539062 1339.539062 1973.199219 1343.628906 1978.851562 1345.550781 C 1978.851562 1345.550781 2004.449219 1353.558594 2034.738281 1391 C 2065.039062 1428.429688 2097.898438 1494.730469 2101.53125 1612.03125 C 2101.910156 1624.429688 2112.269531 1634.179688 2124.671875 1633.808594 C 2130.628906 1633.628906 2136.28125 1631.078125 2140.359375 1626.730469 C 2144.449219 1622.390625 2146.640625 1616.589844 2146.449219 1610.628906 C 2142.570312 1485.359375 2106.480469 1408.171875 2069.699219 1362.710938 C 2032.921875 1317.269531 1993.339844 1303 1993.339844 1303 Z M 1993.339844 1303 "/>
<path fill-rule="nonzero" fill="rgb(98.826599%, 75.78125%, 64.256287%)" fill-opacity="1" d="M 1560.070312 1237.480469 L 1567.578125 1576.328125 L 1833.898438 1701.371094 L 1880.058594 1858.910156 L 1911.339844 1713.871094 L 2053.96875 1508.808594 L 1976.441406 1156.03125 Z M 1560.070312 1237.480469 "/>
<path fill-rule="nonzero" fill="rgb(74.021912%, 36.473083%, 35.301208%)" fill-opacity="1" d="M 1976.449219 1156.019531 L 1560.070312 1237.480469 L 1564.070312 1417.851562 C 1669.839844 1485.820312 1858.941406 1574.96875 2053.96875 1508.820312 Z M 1976.449219 1156.019531 "/>
<path fill-rule="nonzero" fill="rgb(10.205078%, 10.205078%, 10.205078%)" fill-opacity="1" d="M 1387.53125 1043.679688 L 1276.238281 722.339844 C 1276.238281 722.339844 1323.761719 511.03125 1456.300781 533.53125 L 1513.808594 413.5 C 1513.808594 413.5 1986.449219 265.960938 2138.988281 548.539062 L 2033.960938 528.53125 C 2033.960938 528.53125 2118.980469 586.050781 2151.5 718.589844 L 2116.480469 688.578125 L 2118.75 880.128906 C 2118.75 880.128906 1890.171875 1363.769531 1387.53125 1043.679688 Z M 1387.53125 1043.679688 "/>
<path fill-rule="nonzero" fill="rgb(98.826599%, 75.78125%, 64.256287%)" fill-opacity="1" d="M 1438.789062 1003.671875 C 1438.789062 1003.671875 1363.769531 943.648438 1338.761719 1011.171875 C 1313.75 1078.691406 1416.289062 1173.71875 1481.308594 1173.71875 L 1548.820312 1311.261719 L 1778.890625 1463.800781 L 1926.429688 1426.289062 L 2081.480469 1161.210938 L 2081.480469 1073.691406 C 2081.480469 1073.691406 2176.5 1026.179688 2164 926.140625 C 2151.5 826.121094 2061.46875 916.140625 2061.46875 916.140625 L 2056.46875 733.589844 C 2056.46875 733.589844 2046.46875 651.070312 1911.429688 636.058594 C 1911.429688 636.058594 1846.410156 686.078125 1773.890625 691.078125 C 1701.371094 696.078125 1531.320312 671.070312 1531.320312 671.070312 C 1531.320312 671.070312 1508.808594 823.621094 1423.789062 898.640625 Z M 1438.789062 1003.671875 "/>
<path fill-rule="nonzero" fill="rgb(74.021912%, 36.473083%, 35.301208%)" fill-opacity="1" d="M 1767.640625 1097.441406 L 1805.140625 1042.429688 C 1805.140625 1042.429688 1838.910156 1089.941406 1767.640625 1097.441406 Z M 1767.640625 1097.441406 "/>
<path fill-rule="nonzero" fill="rgb(10.205078%, 10.205078%, 10.205078%)" fill-opacity="1" d="M 1637.179688 961.738281 C 1642.558594 990.589844 1634.808594 1016.238281 1619.871094 1019.019531 C 1612.699219 1020.359375 1604.789062 1016.140625 1597.898438 1007.28125 C 1591 998.429688 1585.679688 985.679688 1583.089844 971.820312 C 1580.511719 957.96875 1580.878906 944.148438 1584.128906 933.410156 C 1587.371094 922.660156 1593.21875 915.878906 1600.398438 914.539062 C 1615.328125 911.761719 1631.800781 932.890625 1637.179688 961.738281 Z M 1637.179688 961.738281 "/>
<path fill-rule="nonzero" fill="rgb(10.205078%, 10.205078%, 10.205078%)" fill-opacity="1" d="M 1935.171875 920.019531 C 1936.070312 934.078125 1934.039062 947.761719 1929.519531 958.03125 C 1925.011719 968.308594 1918.378906 974.339844 1911.101562 974.800781 C 1903.820312 975.269531 1896.480469 970.121094 1890.699219 960.511719 C 1884.921875 950.890625 1881.160156 937.589844 1880.269531 923.519531 C 1879.371094 909.460938 1881.398438 895.78125 1885.910156 885.511719 C 1890.429688 875.230469 1897.058594 869.199219 1904.339844 868.738281 C 1911.621094 868.269531 1918.960938 873.410156 1924.738281 883.03125 C 1930.519531 892.648438 1934.269531 905.949219 1935.171875 920.019531 Z M 1935.171875 920.019531 "/>
<path fill-rule="nonzero" fill="rgb(100%, 100%, 100%)" fill-opacity="1" d="M 1652.601562 1186.21875 C 1652.601562 1186.21875 1826.488281 1227.691406 1907.71875 1132.460938 C 1907.71875 1132.460938 1895.421875 1302.5 1805.140625 1312.511719 C 1714.871094 1322.511719 1652.601562 1186.21875 1652.601562 1186.21875 Z M 1652.601562 1186.21875 "/>
<path fill-rule="nonzero" fill="rgb(10.205078%, 10.205078%, 10.205078%)" fill-opacity="1" d="M 1778.890625 1463.800781 L 1779.351562 1393.78125 L 1801.390625 1425.039062 L 1820.148438 1353.769531 L 1872.660156 1398.78125 L 1875.160156 1358.769531 L 1926.429688 1426.289062 Z M 1778.890625 1463.800781 "/>
<path fill-rule="nonzero" fill="rgb(74.021912%, 36.473083%, 35.301208%)" fill-opacity="1" d="M 1387.171875 1006.789062 C 1381.25 1008.03125 1375.730469 1012.078125 1370.929688 1018.949219 C 1366.109375 1025.820312 1361.851562 1035.589844 1358.109375 1049.070312 C 1357.589844 1050.871094 1358.628906 1052.738281 1360.429688 1053.25 C 1362.238281 1053.75 1364.121094 1052.691406 1364.601562 1050.871094 C 1368.21875 1037.859375 1372.308594 1028.738281 1376.460938 1022.820312 C 1380.609375 1016.890625 1384.660156 1014.238281 1388.578125 1013.421875 C 1392.488281 1012.601562 1396.648438 1013.558594 1401.179688 1016.140625 C 1405.710938 1018.730469 1410.441406 1022.921875 1415.011719 1028 C 1430.941406 1045.730469 1440.988281 1068.519531 1444.210938 1075.421875 C 1441.050781 1074.25 1440.308594 1073.210938 1435.730469 1072.960938 C 1431.019531 1072.699219 1425.738281 1073.488281 1421.160156 1076.648438 C 1416.570312 1079.808594 1412.941406 1085.230469 1411.101562 1093.289062 C 1409.160156 1101.761719 1411.691406 1109.429688 1416.289062 1115.460938 C 1420.878906 1121.5 1427.429688 1126.179688 1434.070312 1129.871094 C 1447.351562 1137.238281 1461.339844 1140.671875 1461.339844 1140.671875 C 1463.160156 1141.109375 1464.988281 1139.988281 1465.421875 1138.160156 C 1465.871094 1136.359375 1464.769531 1134.53125 1462.960938 1134.078125 C 1462.960938 1134.078125 1449.660156 1130.808594 1437.359375 1123.980469 C 1431.210938 1120.570312 1425.359375 1116.269531 1421.640625 1111.378906 C 1417.921875 1106.5 1416.210938 1101.289062 1417.691406 1094.828125 C 1419.261719 1087.960938 1421.988281 1084.269531 1425.019531 1082.179688 C 1428.050781 1080.089844 1431.621094 1079.46875 1435.339844 1079.679688 C 1442.78125 1080.089844 1449.921875 1083.941406 1449.921875 1083.941406 C 1452.75 1085.539062 1455.980469 1082.609375 1454.660156 1079.628906 C 1454.660156 1079.628906 1439.511719 1045.171875 1420.019531 1023.46875 C 1415.140625 1018.050781 1409.980469 1013.378906 1404.519531 1010.261719 C 1399.050781 1007.140625 1393.089844 1005.550781 1387.171875 1006.789062 Z M 1387.171875 1006.789062 "/>
<path fill-rule="nonzero" fill="rgb(74.021912%, 36.473083%, 35.301208%)" fill-opacity="1" d="M 2109.609375 908.519531 C 2100.199219 911.910156 2093.148438 921.78125 2087.171875 933.019531 C 2075.210938 955.5 2068.199219 984.75 2068.199219 984.75 C 2067.488281 987.859375 2071.109375 990.128906 2073.609375 988.128906 C 2073.609375 988.128906 2080.441406 982.621094 2087.960938 979.429688 C 2091.71875 977.839844 2095.570312 976.929688 2098.5 977.28125 C 2101.429688 977.640625 2103.519531 978.769531 2105.308594 982.589844 C 2106.949219 986.109375 2106.640625 991.078125 2104.730469 996.78125 C 2102.828125 1002.46875 2099.421875 1008.699219 2095.691406 1014.390625 C 2088.230469 1025.761719 2079.621094 1034.929688 2079.621094 1034.929688 C 2078.371094 1036.300781 2078.449219 1038.410156 2079.800781 1039.679688 C 2081.148438 1040.96875 2083.308594 1040.910156 2084.589844 1039.539062 C 2084.589844 1039.539062 2093.460938 1030.039062 2101.308594 1018.070312 C 2105.238281 1012.089844 2108.949219 1005.460938 2111.148438 998.878906 C 2113.351562 992.308594 2114.148438 985.601562 2111.410156 979.738281 C 2108.820312 974.179688 2104.109375 971.140625 2099.289062 970.558594 C 2094.480469 969.980469 2089.699219 971.351562 2085.328125 973.199219 C 2081.28125 974.910156 2080.75 975.839844 2077.910156 977.71875 C 2079.851562 970.398438 2083.769531 953.808594 2093.148438 936.179688 C 2098.808594 925.539062 2105.660156 917.089844 2111.890625 914.839844 C 2115.019531 913.71875 2117.949219 913.839844 2121.511719 915.769531 C 2125.078125 917.691406 2129.261719 921.691406 2133.679688 928.589844 C 2134.679688 930.148438 2136.769531 930.601562 2138.328125 929.601562 C 2139.890625 928.589844 2140.339844 926.511719 2139.339844 924.941406 C 2134.539062 917.449219 2129.75 912.558594 2124.71875 909.839844 C 2119.691406 907.121094 2114.320312 906.828125 2109.609375 908.519531 Z M 2109.609375 908.519531 "/>
<path fill-rule="nonzero" fill="rgb(12.156677%, 37.255859%, 50.193787%)" fill-opacity="1" d="M 1555.871094 1637.28125 C 1554.121094 1637.929688 1553.238281 1639.878906 1553.890625 1641.628906 C 1553.890625 1641.628906 1577.289062 1703.601562 1603.78125 1764.929688 C 1617.019531 1795.589844 1631 1826.070312 1643.339844 1848.699219 C 1649.5 1860.019531 1655.230469 1869.339844 1660.378906 1875.878906 C 1662.941406 1879.148438 1665.359375 1881.75 1667.800781 1883.570312 C 1670.230469 1885.378906 1672.949219 1886.621094 1675.921875 1885.980469 C 1680.609375 1884.980469 1684.988281 1881.339844 1690.71875 1876.058594 C 1696.441406 1870.769531 1703.128906 1863.699219 1710.480469 1855.640625 C 1725.171875 1839.519531 1742.5 1819.351562 1759.429688 1801.589844 C 1776.371094 1783.828125 1793.078125 1768.488281 1805.539062 1762.25 C 1811.769531 1759.121094 1816.578125 1758.460938 1819.808594 1759.789062 C 1823.039062 1761.109375 1825.890625 1764.71875 1827.539062 1772.871094 C 1827.910156 1774.691406 1829.671875 1775.859375 1831.488281 1775.511719 C 1833.320312 1775.140625 1834.5 1773.339844 1834.121094 1771.511719 C 1832.238281 1762.199219 1828.359375 1756 1822.398438 1753.550781 C 1816.441406 1751.109375 1809.601562 1752.679688 1802.511719 1756.230469 C 1788.328125 1763.339844 1771.660156 1779 1754.558594 1796.929688 C 1737.449219 1814.871094 1720.101562 1835.109375 1705.511719 1851.121094 C 1698.21875 1859.121094 1691.601562 1866.070312 1686.148438 1871.101562 C 1680.699219 1876.128906 1676.019531 1879.070312 1674.511719 1879.390625 C 1674.378906 1879.421875 1673.480469 1879.390625 1671.839844 1878.160156 C 1670.179688 1876.941406 1668.039062 1874.699219 1665.691406 1871.710938 C 1660.980469 1865.730469 1655.339844 1856.601562 1649.269531 1845.449219 C 1637.121094 1823.171875 1623.171875 1792.808594 1609.960938 1762.25 C 1583.558594 1701.121094 1560.21875 1639.261719 1560.21875 1639.261719 C 1559.570312 1637.511719 1557.621094 1636.621094 1555.871094 1637.28125 Z M 1555.871094 1637.28125 "/>
<path fill-rule="nonzero" fill="rgb(12.156677%, 37.255859%, 50.193787%)" fill-opacity="1" d="M 1918.339844 1738.800781 C 1916.339844 1738.660156 1913.878906 1739.429688 1912.71875 1741.300781 C 1911.558594 1743.179688 1911.78125 1745.019531 1912.109375 1746.609375 C 1912.429688 1748.210938 1913 1749.730469 1913.730469 1751.308594 C 1916.640625 1757.648438 1921.851562 1764.570312 1921.851562 1764.570312 C 1922.960938 1766.058594 1925.058594 1766.371094 1926.550781 1765.269531 C 1928.039062 1764.171875 1928.351562 1762.070312 1927.25 1760.578125 C 1927.25 1760.578125 1922.269531 1753.71875 1919.878906 1748.5 C 1919.390625 1747.441406 1919.121094 1746.609375 1918.910156 1745.871094 C 1919.710938 1746.050781 1920.550781 1746.191406 1922.25 1746.960938 C 1924.019531 1747.769531 1927.480469 1750.171875 1931.640625 1753.640625 C 1935.800781 1757.109375 1940.789062 1761.660156 1946.351562 1766.859375 C 1957.480469 1777.25 1970.878906 1790.308594 1984.601562 1802.898438 C 1998.308594 1815.5 2012.308594 1827.648438 2024.910156 1836.359375 C 2037.5 1845.078125 2048.519531 1850.921875 2057.878906 1848.878906 C 2066.140625 1847.078125 2072.46875 1841.609375 2077.199219 1834.871094 C 2081.941406 1828.128906 2085.21875 1820.03125 2087.570312 1812.210938 C 2092.269531 1796.578125 2093.230469 1781.871094 2093.230469 1781.871094 C 2093.359375 1780.019531 2091.96875 1778.410156 2090.109375 1778.269531 C 2088.238281 1778.140625 2086.628906 1779.558594 2086.511719 1781.429688 C 2086.511719 1781.429688 2085.550781 1795.53125 2081.109375 1810.28125 C 2078.890625 1817.660156 2075.820312 1825.121094 2071.71875 1830.960938 C 2067.609375 1836.800781 2062.628906 1840.941406 2056.429688 1842.289062 C 2051.339844 1843.398438 2040.878906 1839.210938 2028.769531 1830.828125 C 2016.660156 1822.449219 2002.730469 1810.449219 1989.121094 1797.941406 C 1975.5 1785.441406 1962.171875 1772.410156 1950.96875 1761.941406 C 1945.359375 1756.699219 1940.28125 1752.070312 1935.941406 1748.460938 C 1931.609375 1744.839844 1928.148438 1742.21875 1925.058594 1740.820312 C 1922.429688 1739.621094 1920.339844 1738.941406 1918.339844 1738.800781 Z M 1918.339844 1738.800781 "/>
<path fill-rule="nonzero" fill="rgb(12.156677%, 37.255859%, 50.193787%)" fill-opacity="1" d="M 1881.851562 1907.628906 C 1879.980469 1907.769531 1878.578125 1909.398438 1878.730469 1911.269531 L 1917.640625 2381.628906 C 1917.800781 2383.480469 1919.429688 2384.859375 1921.28125 2384.699219 C 1923.140625 2384.539062 1924.511719 2382.910156 1924.359375 2381.058594 L 1885.449219 1910.699219 C 1885.289062 1908.871094 1883.691406 1907.5 1881.851562 1907.628906 Z M 1881.851562 1907.628906 "/>
<path fill-rule="nonzero" fill="rgb(12.156677%, 37.255859%, 50.193787%)" fill-opacity="1" d="M 1693.878906 2004.890625 C 1692.988281 2004.921875 1692.160156 2005.300781 1691.550781 2005.941406 C 1690.269531 2007.308594 1690.351562 2009.460938 1691.730469 2010.730469 C 1691.730469 2010.730469 1753.320312 2067.710938 1820.210938 2132.230469 C 1853.648438 2164.480469 1888.429688 2198.628906 1917.46875 2228.429688 C 1946.5 2258.230469 1969.871094 2283.828125 1980.171875 2298.421875 C 1981.230469 2299.949219 1983.339844 2300.320312 1984.871094 2299.25 C 1986.410156 2298.171875 1986.769531 2296.039062 1985.660156 2294.511719 C 1974.738281 2279.050781 1951.410156 2253.609375 1922.300781 2223.730469 C 1893.179688 2193.851562 1858.339844 2159.679688 1824.859375 2127.390625 C 1757.910156 2062.820312 1696.300781 2005.769531 1696.300781 2005.769531 C 1695.640625 2005.171875 1694.769531 2004.851562 1693.878906 2004.890625 Z M 1693.878906 2004.890625 "/>
<path fill-rule="nonzero" fill="rgb(0%, 0%, 0%)" fill-opacity="1" d="M 1511.308594 1585.121094 L 1488.871094 1586.351562 C 1488.871094 1586.351562 1496.058594 1717.761719 1526.230469 1893.441406 L 1548.359375 1889.621094 C 1518.410156 1715.191406 1511.308594 1585.121094 1511.308594 1585.121094 Z M 1511.308594 1585.121094 "/>
<path fill-rule="nonzero" fill="rgb(10.205078%, 10.205078%, 10.205078%)" fill-opacity="1" d="M 1638.089844 1910.75 C 1638.089844 1939.488281 1627.78125 1967.058594 1609.429688 1987.378906 C 1591.070312 2007.710938 1566.179688 2019.128906 1540.230469 2019.128906 C 1514.269531 2019.128906 1489.378906 2007.710938 1471.019531 1987.378906 C 1452.671875 1967.058594 1442.359375 1939.488281 1442.359375 1910.75 C 1442.359375 1850.890625 1486.179688 1802.371094 1540.230469 1802.371094 C 1594.28125 1802.371094 1638.089844 1850.890625 1638.089844 1910.75 Z M 1638.089844 1910.75 "/>
<path fill-rule="nonzero" fill="rgb(92.576599%, 92.576599%, 92.576599%)" fill-opacity="1" d="M 2267.589844 1589.179688 L 2372.230469 1944.558594 L 2379.5 1629.820312 C 2315.800781 1605.269531 2267.589844 1589.179688 2267.589844 1589.179688 Z M 2267.589844 1589.179688 "/>
<path fill-rule="nonzero" fill="rgb(70.117188%, 70.117188%, 70.117188%)" fill-opacity="1" d="M 2266.589844 1585.949219 C 2264.800781 1586.511719 2263.808594 1588.429688 2264.390625 1590.210938 C 2264.390625 1590.210938 2297.480469 1693.730469 2327.480469 1799.171875 C 2342.488281 1851.898438 2356.730469 1905.089844 2365.640625 1946.011719 C 2370.101562 1966.460938 2373.199219 1983.871094 2374.429688 1996.460938 C 2375.039062 2002.75 2375.171875 2007.871094 2374.820312 2011.390625 C 2374.46875 2014.898438 2373.351562 2016.398438 2373.5 2016.308594 C 2367.890625 2019.878906 2353.980469 2026.171875 2336.789062 2033.339844 C 2319.609375 2040.511719 2298.980469 2048.71875 2279.101562 2056.699219 C 2259.21875 2064.679688 2240.058594 2072.429688 2225.839844 2078.789062 C 2218.71875 2081.960938 2212.859375 2084.800781 2208.628906 2087.171875 C 2206.511719 2088.359375 2204.820312 2089.398438 2203.488281 2090.46875 C 2202.820312 2091 2202.21875 2091.550781 2201.691406 2092.21875 C 2201.160156 2092.898438 2200.539062 2093.800781 2200.539062 2095.25 C 2200.539062 2096.808594 2201.070312 2097.429688 2201.511719 2098.148438 C 2201.949219 2098.871094 2202.488281 2099.570312 2203.140625 2100.351562 C 2204.429688 2101.890625 2206.210938 2103.671875 2208.410156 2105.839844 C 2212.800781 2110.171875 2218.929688 2115.820312 2226.230469 2122.429688 C 2240.839844 2135.660156 2260.039062 2152.730469 2278.390625 2170.429688 C 2296.761719 2188.121094 2314.320312 2206.488281 2325.601562 2222.019531 C 2331.238281 2229.78125 2335.28125 2236.871094 2337.101562 2242.519531 C 2338.929688 2248.179688 2338.589844 2251.898438 2336.449219 2254.511719 C 2329.988281 2262.351562 2318.539062 2279.488281 2304.699219 2301.140625 C 2290.859375 2322.800781 2274.738281 2348.839844 2259.378906 2373.941406 C 2228.660156 2424.160156 2201.03125 2470.628906 2201.03125 2470.628906 C 2200.089844 2472.230469 2200.621094 2474.300781 2202.21875 2475.238281 C 2203.800781 2476.191406 2205.859375 2475.679688 2206.820312 2474.101562 C 2206.820312 2474.101562 2234.449219 2427.628906 2265.140625 2377.460938 C 2280.480469 2352.371094 2296.609375 2326.378906 2310.410156 2304.789062 C 2324.199219 2283.191406 2335.820312 2265.878906 2341.671875 2258.769531 C 2345.671875 2253.910156 2345.71875 2247.28125 2343.511719 2240.460938 C 2341.308594 2233.640625 2336.910156 2226.148438 2331.039062 2218.070312 C 2319.289062 2201.890625 2301.539062 2183.421875 2283.050781 2165.601562 C 2264.558594 2147.769531 2245.320312 2130.621094 2230.75 2117.429688 C 2223.46875 2110.828125 2217.339844 2105.21875 2213.101562 2101.050781 C 2210.980469 2098.960938 2209.351562 2097.230469 2208.320312 2096 C 2208.160156 2095.800781 2208.089844 2095.730469 2207.96875 2095.558594 C 2208.808594 2094.910156 2210.101562 2094.03125 2211.921875 2093.019531 C 2215.800781 2090.828125 2221.578125 2088.070312 2228.601562 2084.929688 C 2242.640625 2078.660156 2261.730469 2070.910156 2281.601562 2062.941406 C 2301.46875 2054.960938 2322.121094 2046.738281 2339.378906 2039.53125 C 2356.648438 2032.320312 2370.351562 2026.28125 2377.101562 2021.96875 C 2380.351562 2019.898438 2381.109375 2016.328125 2381.539062 2012.050781 C 2381.96875 2007.761719 2381.78125 2002.339844 2381.140625 1995.800781 C 2379.859375 1982.710938 2376.710938 1965.148438 2372.230469 1944.558594 C 2363.261719 1903.371094 2349 1850.121094 2333.980469 1797.328125 C 2303.941406 1691.738281 2270.800781 1588.148438 2270.800781 1588.148438 C 2270.230469 1586.378906 2268.351562 1585.398438 2266.578125 1585.949219 Z M 2266.589844 1585.949219 "/>
<path fill-rule="nonzero" fill="rgb(0%, 0%, 0%)" fill-opacity="1" d="M 2147.199219 1598.109375 C 2130.039062 1592.488281 2111.46875 1594.820312 2096.96875 1602.808594 C 2082.460938 1610.800781 2071.410156 1623.109375 2061.96875 1637.320312 C 2043.070312 1665.761719 2030.019531 1703.261719 2019.898438 1741.871094 C 2009.789062 1780.480469 2003.050781 1820.03125 1999.269531 1851.429688 C 1997.378906 1867.121094 1996.230469 1880.710938 1995.800781 1891.429688 C 1995.570312 1896.78125 1995.550781 1901.398438 1995.75 1905.570312 C 1995.949219 1909.730469 1994.679688 1911.800781 1998.960938 1920.578125 C 2004.390625 1931.730469 2017.839844 1936.371094 2028.988281 1930.941406 C 2040.140625 1925.511719 2044.78125 1912.070312 2039.351562 1900.910156 C 2042.648438 1907.679688 2040.730469 1905.480469 2040.628906 1903.410156 C 2040.539062 1901.351562 2040.539062 1897.761719 2040.71875 1893.269531 C 2041.078125 1884.289062 2042.140625 1871.589844 2043.921875 1856.828125 C 2047.480469 1827.300781 2053.941406 1789.269531 2063.371094 1753.25 C 2072.808594 1717.21875 2085.609375 1683 2099.421875 1662.21875 C 2106.328125 1651.828125 2113.339844 1645.121094 2118.660156 1642.199219 C 2123.96875 1639.269531 2126.980469 1638.789062 2133.230469 1640.839844 C 2136.359375 1641.859375 2154.769531 1656.78125 2171.871094 1679.871094 C 2188.980469 1702.960938 2207.359375 1733.179688 2223.820312 1763.03125 C 2240.269531 1792.890625 2254.890625 1822.511719 2264.871094 1844.621094 C 2269.859375 1855.679688 2273.71875 1864.890625 2275.941406 1870.921875 C 2277.050781 1873.929688 2277.78125 1876.269531 2277.910156 1876.808594 C 2277.980469 1877.070312 2277.851562 1877.03125 2277.730469 1875.308594 C 2277.621094 1873.601562 2274.019531 1868.371094 2284.539062 1858.488281 C 2280.191406 1862.570312 2277.640625 1868.21875 2277.449219 1874.179688 C 2277.261719 1880.140625 2279.449219 1885.929688 2283.53125 1890.28125 C 2287.609375 1894.640625 2293.25 1897.191406 2299.21875 1897.371094 C 2305.179688 1897.570312 2310.96875 1895.378906 2315.320312 1891.289062 C 2326.199219 1881.089844 2322.769531 1875.089844 2322.570312 1872.191406 C 2322.359375 1869.289062 2321.941406 1867.640625 2321.511719 1865.910156 C 2320.648438 1862.46875 2319.558594 1859.238281 2318.128906 1855.371094 C 2315.28125 1847.648438 2311.109375 1837.769531 2305.839844 1826.089844 C 2295.28125 1802.71875 2280.28125 1772.300781 2263.199219 1741.300781 C 2246.121094 1710.300781 2227.058594 1678.808594 2208 1653.089844 C 2188.949219 1627.371094 2172.480469 1606.398438 2147.191406 1598.109375 Z M 2147.199219 1598.109375 "/>
<path fill-rule="nonzero" fill="rgb(0%, 0%, 0%)" fill-opacity="1" d="M 2009.011719 1869.300781 C 2008.070312 1871.921875 2008.328125 1871.75 2008.089844 1872.980469 C 2007.851562 1874.21875 2007.589844 1875.820312 2007.261719 1877.769531 C 2006.601562 1881.679688 2005.75 1887.039062 2004.800781 1893.75 C 2002.910156 1907.179688 2000.578125 1925.851562 1998.480469 1947.890625 C 1994.269531 1991.988281 1990.910156 2049.660156 1993.730469 2106.488281 C 1996.558594 2163.328125 2005.28125 2219.28125 2026.839844 2260.699219 C 2037.621094 2281.410156 2051.808594 2298.640625 2070.53125 2309.53125 C 2089.25 2320.421875 2112.21875 2324.460938 2138.328125 2320.109375 L 2134.640625 2297.941406 C 2112.71875 2301.589844 2095.929688 2298.300781 2081.859375 2290.121094 C 2067.789062 2281.941406 2056.179688 2268.398438 2046.78125 2250.339844 C 2027.980469 2214.21875 2018.949219 2160.589844 2016.21875 2105.390625 C 2013.480469 2050.199219 2016.730469 1993.371094 2020.871094 1950 C 2022.941406 1928.320312 2025.21875 1910 2027.058594 1896.910156 C 2027.980469 1890.371094 2028.820312 1885.109375 2029.429688 1881.460938 C 2029.738281 1879.628906 2029.988281 1878.191406 2030.179688 1877.238281 C 2030.359375 1876.289062 2030.910156 1874.75 2030.128906 1876.890625 Z M 2009.011719 1869.300781 "/>
<path fill-rule="nonzero" fill="rgb(0%, 0%, 0%)" fill-opacity="1" d="M 2269.699219 1796.230469 L 2250.859375 1808.53125 C 2250.859375 1808.53125 2295.570312 1877 2322.308594 1961.109375 C 2335.671875 2003.160156 2344.398438 2048.949219 2341.191406 2091.339844 C 2337.980469 2133.738281 2323.28125 2172.460938 2289.328125 2203.179688 L 2304.429688 2219.871094 C 2343.039062 2184.941406 2360.050781 2139.679688 2363.578125 2093.058594 C 2367.109375 2046.429688 2357.609375 1998.121094 2343.691406 1954.308594 C 2315.839844 1866.660156 2269.699219 1796.230469 2269.699219 1796.230469 Z M 2269.699219 1796.230469 "/>
<path fill-rule="nonzero" fill="rgb(10.205078%, 10.205078%, 10.205078%)" fill-opacity="1" d="M 2203.929688 2298.191406 C 2203.929688 2309.210938 2199.558594 2319.78125 2191.761719 2327.578125 C 2183.96875 2335.371094 2173.398438 2339.75 2162.378906 2339.75 C 2151.359375 2339.75 2140.789062 2335.371094 2133 2327.578125 C 2125.199219 2319.78125 2120.820312 2309.210938 2120.820312 2298.191406 C 2120.820312 2287.171875 2125.199219 2276.601562 2133 2268.808594 C 2140.789062 2261.019531 2151.359375 2256.640625 2162.378906 2256.640625 C 2185.328125 2256.640625 2203.929688 2275.238281 2203.929688 2298.191406 Z M 2203.929688 2298.191406 "/>
<path fill-rule="nonzero" fill="rgb(10.205078%, 10.205078%, 10.205078%)" fill-opacity="1" d="M 2314.449219 2227.460938 C 2314.449219 2238.480469 2310.070312 2249.050781 2302.28125 2256.851562 C 2294.488281 2264.640625 2283.921875 2269.019531 2272.898438 2269.019531 C 2261.878906 2269.019531 2251.308594 2264.640625 2243.511719 2256.851562 C 2235.71875 2249.050781 2231.339844 2238.480469 2231.339844 2227.460938 C 2231.339844 2204.511719 2249.949219 2185.910156 2272.898438 2185.910156 C 2283.921875 2185.910156 2294.488281 2190.28125 2302.28125 2198.078125 C 2310.070312 2205.871094 2314.449219 2216.441406 2314.449219 2227.460938 Z M 2314.449219 2227.460938 "/>
<path fill-rule="nonzero" fill="rgb(92.576599%, 92.576599%, 92.576599%)" fill-opacity="1" d="M 1258.738281 1709.171875 C 1258.738281 1709.171875 1208.019531 1733.75 1142.558594 1767.699219 L 1269.710938 2204.71875 Z M 1258.738281 1709.171875 "/>
<path fill-rule="nonzero" fill="rgb(70.117188%, 70.117188%, 70.117188%)" fill-opacity="1" d="M 907.199219 2028.070312 C 905.453125 2027.410156 903.507812 2028.300781 902.855469 2030.050781 C 902.195312 2031.789062 903.082031 2033.738281 904.828125 2034.390625 C 904.828125 2034.390625 1107.609375 2111.851562 1209.25 2247.140625 C 1210.371094 2248.609375 1212.46875 2248.898438 1213.949219 2247.789062 C 1215.449219 2246.671875 1215.75 2244.539062 1214.609375 2243.050781 C 1111.128906 2105.320312 907.199219 2028.070312 907.199219 2028.070312 Z M 907.199219 2028.070312 "/>
<path fill-rule="nonzero" fill="rgb(70.117188%, 70.117188%, 70.117188%)" fill-opacity="1" d="M 1769.53125 2567.410156 L 1441 2711.078125 C 1437.679688 2712.550781 1438.730469 2717.519531 1442.359375 2717.53125 L 1461.289062 2717.53125 C 1463.160156 2717.539062 1464.679688 2716.019531 1464.671875 2714.148438 C 1464.679688 2712.28125 1463.160156 2710.769531 1461.289062 2710.769531 L 1458.570312 2710.769531 L 1772.210938 2573.601562 C 1773.941406 2572.859375 1774.730469 2570.839844 1773.96875 2569.121094 C 1773.210938 2567.429688 1771.230469 2566.660156 1769.53125 2567.410156 Z M 1769.53125 2567.410156 "/>
<path fill-rule="nonzero" fill="rgb(32.93457%, 68.554688%, 86.71875%)" fill-opacity="1" d="M 2050.96875 2476.179688 C 2087.980469 2620.808594 2092.730469 2717.128906 2092.730469 2717.128906 L 2174 2717.128906 L 2170.808594 2657.101562 C 2097.53125 2624.050781 2050.96875 2476.179688 2050.96875 2476.179688 Z M 2050.96875 2476.179688 "/>
<path fill-rule="nonzero" fill="rgb(70.117188%, 70.117188%, 70.117188%)" fill-opacity="1" d="M 2036.320312 2419.121094 C 2034.53125 2419.628906 2033.480469 2421.5 2034 2423.300781 C 2034 2423.300781 2056.289062 2504.230469 2075.628906 2605.480469 C 2094.820312 2705.980469 2110.75 2826.242188 2099.46875 2906.605469 L 1790.519531 2991 C 1790.28125 2991.0625 1790.039062 2991.148438 1789.820312 2991.261719 C 1789.820312 2991.261719 1687.289062 3045.628906 1573.261719 3099.980469 C 1516.238281 3127.15625 1456.339844 3154.324219 1405 3174.671875 C 1353.660156 3195.019531 1310.480469 3208.4375 1288.679688 3208.4375 C 1286.828125 3208.457031 1285.339844 3209.964844 1285.351562 3211.820312 C 1285.371094 3213.652344 1286.851562 3215.136719 1288.679688 3215.15625 C 1313.128906 3215.15625 1355.921875 3201.394531 1407.5 3180.949219 C 1459.089844 3160.507812 1519.058594 3133.300781 1576.160156 3106.085938 C 1690.179688 3051.734375 1792.378906 2997.566406 1792.679688 2997.410156 L 2103.679688 2912.445312 C 2104.96875 2912.101562 2105.929688 2911.035156 2106.140625 2909.722656 C 2118.179688 2827.535156 2101.648438 2705.730469 2082.25 2604.199219 C 2062.859375 2502.671875 2040.5 2421.5 2040.5 2421.5 C 2040.011719 2419.679688 2038.128906 2418.621094 2036.320312 2419.121094 Z M 2036.320312 2419.121094 "/>
<path fill-rule="nonzero" fill="rgb(70.117188%, 70.117188%, 70.117188%)" fill-opacity="1" d="M 2092.75 2713.761719 C 2090.890625 2713.75 2089.390625 2715.238281 2089.371094 2717.089844 C 2089.339844 2718.960938 2090.839844 2720.5 2092.699219 2720.519531 L 2557.699219 2723.460938 C 2558.660156 2724.5 2587.839844 2755.910156 2622.601562 2787.746094 C 2640.269531 2803.921875 2659.089844 2819.953125 2675.988281 2831.699219 C 2684.449219 2837.570312 2692.421875 2842.347656 2699.621094 2845.574219 C 2706.808594 2848.796875 2713.25 2850.5625 2718.980469 2849.742188 C 2721.75 2849.347656 2724.148438 2848.484375 2725.878906 2846.671875 C 2727.601562 2844.859375 2728.191406 2842.234375 2727.890625 2839.910156 C 2727.308594 2835.253906 2724.25 2830.757812 2719.898438 2825.460938 C 2711.199219 2814.871094 2696.519531 2801.746094 2680.648438 2788.753906 C 2648.890625 2762.773438 2612.539062 2737.550781 2612.539062 2737.550781 C 2611.019531 2736.488281 2608.910156 2736.859375 2607.839844 2738.390625 C 2606.789062 2739.929688 2607.179688 2742.03125 2608.71875 2743.089844 C 2608.71875 2743.089844 2644.878906 2768.238281 2676.339844 2793.980469 C 2692.070312 2806.847656 2706.679688 2819.921875 2714.71875 2829.722656 C 2718.75 2834.621094 2720.941406 2838.871094 2721.179688 2840.742188 C 2721.289062 2841.679688 2721.191406 2841.769531 2720.949219 2842.015625 C 2720.71875 2842.261719 2719.878906 2842.800781 2718.011719 2843.070312 C 2714.460938 2843.574219 2708.980469 2842.382812 2702.378906 2839.425781 C 2695.78125 2836.46875 2688.089844 2831.886719 2679.851562 2826.164062 C 2663.390625 2814.722656 2644.699219 2798.84375 2627.160156 2782.78125 C 2592.078125 2750.65625 2561.558594 2717.800781 2561.558594 2717.800781 C 2560.929688 2717.128906 2560.058594 2716.75 2559.140625 2716.738281 Z M 2092.75 2713.761719 "/>
<path fill-rule="nonzero" fill="rgb(70.117188%, 70.117188%, 70.117188%)" fill-opacity="1" d="M 2546.898438 2766.625 C 2545.828125 2766.511719 2544.378906 2767.050781 2543.648438 2767.808594 C 2542.199219 2769.328125 2542.390625 2770.410156 2542.328125 2771.496094 C 2542.289062 2772.582031 2542.351562 2773.761719 2542.511719 2775.140625 C 2543.140625 2780.664062 2545.140625 2789.5625 2548.128906 2801.179688 C 2554.128906 2824.417969 2564.078125 2858.117188 2574.699219 2892.730469 C 2595.929688 2961.957031 2619.789062 3034.90625 2619.789062 3034.90625 C 2620.378906 3036.679688 2622.28125 3037.640625 2624.058594 3037.058594 C 2625.820312 3036.476562 2626.789062 3034.570312 2626.199219 3032.800781 C 2626.199219 3032.800781 2602.359375 2959.894531 2581.148438 2890.753906 C 2570.550781 2856.183594 2560.621094 2822.523438 2554.679688 2799.511719 C 2552.75 2792.027344 2552.078125 2788.023438 2551.121094 2783.175781 C 2556.429688 2791.804688 2562.570312 2802.3125 2571.269531 2819.007812 C 2582.199219 2839.9375 2594.820312 2865.027344 2606.75 2889.21875 C 2630.609375 2937.597656 2651.808594 2982.261719 2651.808594 2982.261719 C 2652.609375 2983.929688 2654.609375 2984.632812 2656.28125 2983.839844 C 2657.96875 2983.050781 2658.699219 2981.046875 2657.910156 2979.363281 C 2657.910156 2979.363281 2636.648438 2934.664062 2612.769531 2886.230469 C 2600.828125 2862.015625 2588.25 2836.898438 2577.289062 2815.890625 C 2566.328125 2794.878906 2557.121094 2778.113281 2551.519531 2770.179688 C 2550.75 2769.101562 2550.109375 2768.296875 2549.101562 2767.542969 C 2548.601562 2767.167969 2547.96875 2766.746094 2546.910156 2766.621094 Z M 2546.898438 2766.625 "/>
<path fill-rule="nonzero" fill="rgb(70.117188%, 70.117188%, 70.117188%)" fill-opacity="1" d="M 2493.589844 2265.660156 C 2491.75 2265.929688 2490.46875 2267.640625 2490.738281 2269.480469 L 2555.769531 2720.609375 C 2556.039062 2722.449219 2557.75 2723.730469 2559.589844 2723.460938 C 2561.429688 2723.191406 2562.710938 2721.480469 2562.449219 2719.640625 L 2497.410156 2268.519531 C 2497.148438 2266.679688 2495.441406 2265.398438 2493.589844 2265.660156 Z M 2493.589844 2265.660156 "/>
<path fill-rule="nonzero" fill="rgb(70.117188%, 70.117188%, 70.117188%)" fill-opacity="1" d="M 2556.121094 1862.359375 C 2554.660156 1861.199219 2552.53125 1861.460938 2551.378906 1862.929688 C 2526.488281 1894.699219 2504.609375 1957.109375 2488.5 2011.871094 C 2472.390625 2066.628906 2462.328125 2113.648438 2462.328125 2113.648438 C 2461.949219 2115.46875 2463.109375 2117.261719 2464.921875 2117.648438 C 2466.738281 2118.03125 2468.53125 2116.871094 2468.921875 2115.050781 C 2468.921875 2115.050781 2478.929688 2068.25 2494.960938 2013.761719 C 2510.980469 1959.269531 2533.289062 1896.96875 2556.691406 1867.101562 C 2557.851562 1865.640625 2557.589844 1863.511719 2556.121094 1862.359375 Z M 2556.121094 1862.359375 "/>
<path fill-rule="nonzero" fill="rgb(70.117188%, 70.117188%, 70.117188%)" fill-opacity="1" d="M 1273.96875 1759.210938 C 1272.121094 1759.140625 1270.550781 1760.570312 1270.460938 1762.421875 C 1270.460938 1762.421875 1264.238281 1896.820312 1262.03125 2027.941406 C 1260.929688 2093.5 1260.839844 2158.230469 1263 2205.03125 C 1264.078125 2228.429688 1265.691406 2247.320312 1268.140625 2259.820312 C 1269.351562 2266.078125 1270.640625 2270.710938 1272.699219 2273.960938 C 1273.730469 2275.589844 1275.121094 2277.050781 1277.21875 2277.609375 C 1279.320312 2278.171875 1281.558594 2277.328125 1283.058594 2276.070312 C 1299.441406 2262.371094 1335.949219 2224.5 1368.691406 2189.789062 C 1397.421875 2159.320312 1416.808594 2138.148438 1422.648438 2131.78125 C 1420.941406 2140.691406 1414.089844 2175.410156 1408.429688 2223.550781 C 1405.25 2250.519531 1402.878906 2278.738281 1402.941406 2302.898438 C 1402.980469 2327.058594 1405.121094 2347.03125 1412.460938 2358.441406 C 1419.460938 2369.308594 1438.390625 2389.019531 1463.359375 2413.421875 C 1488.320312 2437.808594 1519.148438 2466.53125 1549.148438 2493.988281 C 1609.160156 2548.898438 1665.910156 2598.761719 1665.910156 2598.761719 C 1667.308594 2600 1669.460938 2599.871094 1670.691406 2598.449219 C 1671.910156 2597.050781 1671.769531 2594.941406 1670.390625 2593.710938 C 1670.390625 2593.710938 1613.671875 2543.839844 1553.71875 2488.980469 C 1523.75 2461.558594 1492.929688 2432.890625 1468.050781 2408.589844 C 1443.179688 2384.28125 1424.070312 2363.980469 1418.128906 2354.75 C 1412.539062 2346.070312 1409.710938 2326.601562 1409.648438 2302.898438 C 1409.609375 2279.191406 1411.941406 2251.148438 1415.101562 2224.339844 C 1421.410156 2170.730469 1430.949219 2122.078125 1430.949219 2122.078125 C 1431.558594 2118.789062 1427.511719 2116.71875 1425.191406 2119.140625 C 1425.191406 2119.140625 1396.460938 2150.511719 1363.769531 2185.179688 C 1331.089844 2219.828125 1294.21875 2257.910156 1278.761719 2270.839844 C 1278.710938 2270.800781 1278.769531 2270.890625 1278.410156 2270.320312 C 1277.339844 2268.621094 1275.910156 2264.449219 1274.769531 2258.550781 C 1272.460938 2246.75 1270.789062 2227.96875 1269.710938 2204.71875 C 1267.570312 2158.210938 1267.691406 2093.558594 1268.789062 2028.070312 C 1271 1897.089844 1277.179688 1762.730469 1277.179688 1762.730469 C 1277.261719 1760.871094 1275.828125 1759.308594 1273.980469 1759.210938 Z M 1273.96875 1759.210938 "/>
<path fill-rule="nonzero" fill="rgb(98.826599%, 75.78125%, 64.256287%)" fill-opacity="1" d="M 2162.378906 2520.160156 C 2162.378906 2520.160156 2292.351562 2547.390625 2325.949219 2574.890625 C 2359.539062 2602.390625 2457.679688 2714.160156 2457.679688 2714.160156 L 2174 2717.128906 Z M 2162.378906 2520.160156 "/>
<path fill-rule="nonzero" fill="rgb(32.93457%, 68.554688%, 86.71875%)" fill-opacity="1" d="M 1841.648438 3046.917969 L 1951.070312 3373.359375 L 2053.328125 3088.640625 Z M 1841.648438 3046.917969 "/>
<path fill-rule="nonzero" fill="rgb(92.576599%, 92.576599%, 92.576599%)" fill-opacity="1" d="M 1466.390625 3148.203125 L 1288.691406 3215.15625 L 1196.21875 3211.796875 L 1107.601562 3749.996094 L 2691.980469 3749.996094 L 2621.25 3155.859375 C 2573.558594 3163.511719 2506.328125 3175.15625 2506.328125 3175.15625 C 2506.328125 3175.15625 2223.539062 3424.644531 2078.429688 3373.363281 C 1933.320312 3322.082031 1515.390625 3502.441406 1413.671875 3463.539062 C 1311.941406 3424.636719 1466.390625 3148.203125 1466.390625 3148.203125 Z M 1466.390625 3148.203125 "/>
<path fill-rule="nonzero" fill="rgb(70.117188%, 70.117188%, 70.117188%)" fill-opacity="1" d="M 1700.109375 3039.738281 C 1699.25 3039.515625 1698.339844 3039.640625 1697.570312 3040.089844 C 1695.949219 3041.023438 1695.398438 3043.085938 1696.339844 3044.699219 L 1895.109375 3384.117188 C 1896.050781 3385.730469 1898.109375 3386.28125 1899.71875 3385.347656 C 1901.339844 3384.414062 1901.890625 3382.351562 1900.949219 3380.738281 L 1702.179688 3041.320312 C 1701.730469 3040.539062 1700.980469 3039.96875 1700.109375 3039.738281 Z M 1700.109375 3039.738281 "/>
<path fill-rule="nonzero" fill="rgb(70.117188%, 70.117188%, 70.117188%)" fill-opacity="1" d="M 2161.691406 3106.570312 C 2160.140625 3105.546875 2158.070312 3105.957031 2157.03125 3107.492188 L 1994.21875 3353.820312 C 1993.199219 3355.375 1993.640625 3357.453125 1995.179688 3358.476562 C 1996.730469 3359.527344 1998.839844 3359.113281 1999.878906 3357.554688 L 2162.648438 3111.222656 C 2163.660156 3109.667969 2163.230469 3107.589844 2161.679688 3106.566406 Z M 2161.691406 3106.570312 "/>
<path fill-rule="nonzero" fill="rgb(12.156677%, 37.255859%, 50.193787%)" fill-opacity="1" d="M 1947.5 3064.414062 C 1945.640625 3064.410156 1944.140625 3065.902344 1944.121094 3067.753906 L 1943.890625 3263.71875 C 1943.890625 3265.570312 1945.378906 3267.082031 1947.230469 3267.101562 C 1949.101562 3267.105469 1950.609375 3265.589844 1950.609375 3263.71875 L 1950.871094 3067.796875 C 1950.878906 3065.925781 1949.359375 3064.410156 1947.488281 3064.414062 Z M 1947.5 3064.414062 "/>
<path fill-rule="nonzero" fill="rgb(70.117188%, 70.117188%, 70.117188%)" fill-opacity="1" d="M 1951.101562 3369.980469 C 1949.230469 3369.976562 1947.710938 3371.492188 1947.71875 3373.359375 L 1947.101562 3668.648438 C 1947.101562 3670.5 1948.589844 3672.011719 1950.441406 3672.03125 C 1952.308594 3672.035156 1953.820312 3670.519531 1953.820312 3668.648438 L 1954.441406 3373.359375 C 1954.441406 3371.507812 1952.949219 3370 1951.101562 3369.980469 Z M 1951.101562 3369.980469 "/>
<path fill-rule="nonzero" fill="rgb(70.117188%, 70.117188%, 70.117188%)" fill-opacity="1" d="M 1259.128906 2393.921875 C 1257.308594 2394.230469 1256.070312 2395.960938 1256.371094 2397.78125 L 1310.199219 2730.878906 C 1309.449219 2731.980469 1275.449219 2782.226562 1243.191406 2832.046875 C 1226.890625 2857.234375 1211.210938 2882.042969 1200.871094 2899.84375 C 1195.691406 2908.746094 1191.859375 2915.804688 1189.839844 2920.613281 C 1188.839844 2923.019531 1188 2924.4375 1188.308594 2926.980469 C 1188.378906 2927.617188 1188.589844 2928.46875 1189.269531 2929.261719 C 1189.949219 2930.058594 1191.128906 2930.558594 1192 2930.625 C 1193.738281 2930.757812 1194.558594 2930.164062 1195.460938 2929.613281 C 1198.679688 2927.660156 1203.308594 2923.589844 1209.691406 2917.628906 C 1216.070312 2911.664062 1223.980469 2903.910156 1232.921875 2894.925781 C 1250.800781 2876.957031 1272.679688 2854.1875 1293.910156 2831.828125 C 1332.050781 2791.652344 1360.910156 2760.375 1367.851562 2752.878906 L 1335.441406 2900.984375 C 1334.558594 2904.667969 1339.480469 2906.796875 1341.550781 2903.621094 L 1389.058594 2833.585938 C 1390.121094 2832.046875 1389.730469 2829.9375 1388.179688 2828.886719 C 1386.628906 2827.835938 1384.519531 2828.25 1383.480469 2829.808594 L 1345.808594 2885.265625 L 1377.070312 2742.390625 C 1377.890625 2738.980469 1373.609375 2736.738281 1371.28125 2739.359375 C 1371.28125 2739.359375 1331.449219 2782.496094 1289.039062 2827.171875 C 1267.820312 2849.511719 1245.941406 2872.238281 1228.128906 2890.140625 C 1219.230469 2899.089844 1211.359375 2906.839844 1205.078125 2912.707031 C 1202.121094 2915.472656 1201.070312 2916.078125 1198.890625 2917.933594 C 1200.921875 2913.808594 1202.941406 2909.691406 1206.699219 2903.222656 C 1216.929688 2885.625 1232.578125 2860.835938 1248.859375 2835.691406 C 1281.410156 2785.40625 1316.570312 2733.558594 1316.570312 2733.558594 C 1317.039062 2732.851562 1317.230469 2731.988281 1317.089844 2731.140625 L 1263 2396.730469 C 1262.710938 2394.890625 1260.980469 2393.628906 1259.128906 2393.921875 Z M 1259.128906 2393.921875 "/>
<path fill-rule="nonzero" fill="rgb(70.117188%, 70.117188%, 70.117188%)" fill-opacity="1" d="M 1723.46875 3019.9375 C 1721.640625 3019.554688 1719.851562 3020.734375 1719.480469 3022.570312 C 1719.089844 3024.402344 1720.28125 3026.195312 1722.109375 3026.566406 C 1722.109375 3026.566406 1907.480469 3063.679688 2098.109375 3100.816406 C 2193.421875 3119.382812 2290.058594 3137.953125 2365.511719 3151.882812 C 2403.238281 3158.847656 2435.671875 3164.632812 2460 3168.699219 C 2484.339844 3172.765625 2500.070312 3175.15625 2506.328125 3175.15625 C 2548.730469 3175.15625 2574.210938 3169.753906 2574.210938 3169.753906 C 2576.03125 3169.363281 2577.191406 3167.578125 2576.800781 3165.757812 C 2576.410156 3163.941406 2574.628906 3162.78125 2572.808594 3163.167969 C 2572.808594 3163.167969 2548.160156 3168.394531 2506.328125 3168.394531 C 2502.058594 3168.394531 2485.371094 3166.125 2461.101562 3162.070312 C 2436.828125 3158.015625 2404.449219 3152.214844 2366.738281 3145.253906 C 2291.328125 3131.332031 2194.71875 3112.753906 2099.421875 3094.1875 C 1908.820312 3057.054688 1723.46875 3019.9375 1723.46875 3019.9375 Z M 1723.46875 3019.9375 "/>
<path fill-rule="nonzero" fill="rgb(92.576599%, 92.576599%, 92.576599%)" fill-opacity="1" d="M 1263 2396.730469 C 1263 2396.730469 1378.570312 2604.128906 1432.339844 2616.628906 C 1486.101562 2629.128906 1468.601562 2559.109375 1519.859375 2559.109375 C 1571.128906 2559.109375 1769.53125 2567.410156 1769.53125 2567.410156 L 1377.070312 2742.390625 C 1377.070312 2742.390625 1380.621094 2706.339844 1310.199219 2730.878906 Z M 1263 2396.730469 "/>
<path fill-rule="nonzero" fill="rgb(92.576599%, 92.576599%, 92.576599%)" fill-opacity="1" d="M 1993.671875 2940.128906 C 1993.671875 2940.128906 2159.269531 3120.75 2366.738281 3145.253906 L 1722.109375 3026.566406 L 1792.671875 2997.410156 Z M 1993.671875 2940.128906 "/>
<path fill-rule="nonzero" fill="rgb(30.200195%, 30.200195%, 30.200195%)" fill-opacity="1" d="M 1686.238281 476.980469 C 1680.441406 478.148438 1673.328125 480.371094 1665.25 483.308594 C 1649.089844 489.171875 1629.171875 497.929688 1609.75 507.019531 C 1570.910156 525.179688 1534.050781 544.691406 1534.050781 544.691406 C 1532.421875 545.558594 1531.800781 547.570312 1532.640625 549.210938 C 1533.511719 550.859375 1535.558594 551.488281 1537.210938 550.621094 C 1537.210938 550.621094 1573.949219 531.199219 1612.601562 513.121094 C 1631.929688 504.078125 1651.730469 495.410156 1667.53125 489.671875 C 1675.429688 486.800781 1682.378906 484.660156 1687.601562 483.609375 C 1692.539062 482.609375 1695.53125 483.140625 1695.980469 483.261719 C 1695.871094 483.488281 1695.941406 483.5 1695.550781 484.011719 C 1694.160156 485.78125 1690.929688 488.558594 1686.679688 491.519531 C 1678.179688 497.429688 1665.628906 504.5 1654.179688 511.140625 C 1642.738281 517.789062 1632.578125 523.691406 1627.621094 528.839844 C 1626.378906 530.121094 1625.308594 531.378906 1624.851562 533.269531 C 1624.398438 535.171875 1625.53125 537.828125 1627.179688 538.890625 C 1630.480469 541.03125 1634.359375 540.890625 1641.101562 540.429688 C 1667.871094 538.621094 1717.21875 527.308594 1777.789062 525.628906 C 1838.359375 523.960938 1909.808594 531.871094 1979.730469 568.308594 C 1981.378906 569.191406 1983.421875 568.558594 1984.289062 566.910156 C 1985.160156 565.25 1984.511719 563.191406 1982.839844 562.339844 C 1911.609375 525.210938 1838.910156 517.21875 1777.609375 518.910156 C 1716.308594 520.609375 1666.070312 531.941406 1640.660156 533.671875 C 1635.621094 534.011719 1633.878906 533.511719 1632.800781 533.320312 C 1636.289062 529.808594 1646.328125 523.5 1657.558594 516.980469 C 1668.949219 510.371094 1681.519531 503.289062 1690.5 497.050781 C 1694.980469 493.929688 1698.570312 491.078125 1700.859375 488.128906 C 1702 486.660156 1702.941406 485.128906 1703.050781 483.089844 C 1703.160156 481.039062 1701.941406 478.820312 1700.289062 477.679688 C 1696.53125 475.109375 1692.039062 475.808594 1686.230469 476.980469 Z M 1686.238281 476.980469 "/>
<path fill-rule="nonzero" fill="rgb(30.200195%, 30.200195%, 30.200195%)" fill-opacity="1" d="M 1411.628906 640.191406 C 1410.71875 640.21875 1409.871094 640.621094 1409.261719 641.289062 C 1409.261719 641.289062 1348.78125 706.738281 1362.710938 815.171875 C 1362.960938 817.011719 1364.648438 818.308594 1366.488281 818.070312 C 1368.351562 817.839844 1369.671875 816.148438 1369.429688 814.289062 C 1355.859375 708.640625 1414.21875 645.859375 1414.21875 645.859375 C 1415.46875 644.488281 1415.390625 642.378906 1414.039062 641.109375 C 1413.390625 640.5 1412.519531 640.160156 1411.628906 640.191406 Z M 1411.628906 640.191406 "/>
<path fill-rule="nonzero" fill="rgb(10.205078%, 10.205078%, 10.205078%)" fill-opacity="1" d="M 1598.070312 847.488281 C 1582.890625 846.941406 1569.53125 851.179688 1558.769531 857.230469 C 1537.25 869.339844 1525.179688 888.058594 1525.179688 888.058594 C 1523.480469 890.660156 1524.210938 894.128906 1526.808594 895.828125 C 1529.398438 897.519531 1532.878906 896.800781 1534.570312 894.210938 C 1534.570312 894.210938 1545.5 877.578125 1564.261719 867.03125 C 1583.019531 856.46875 1608.578125 851.449219 1641.578125 875.679688 C 1642.789062 876.558594 1644.289062 876.921875 1645.769531 876.691406 C 1647.238281 876.460938 1648.558594 875.648438 1649.441406 874.441406 C 1650.320312 873.238281 1650.691406 871.730469 1650.460938 870.261719 C 1650.230469 868.789062 1649.421875 867.460938 1648.210938 866.589844 C 1630.230469 853.378906 1613.25 848.03125 1598.070312 847.488281 Z M 1598.070312 847.488281 "/>
<path fill-rule="nonzero" fill="rgb(10.205078%, 10.205078%, 10.205078%)" fill-opacity="1" d="M 1919.480469 807.480469 C 1904.578125 806.058594 1891.070312 809.890625 1880.140625 815.78125 C 1858.269531 827.578125 1845.320312 846.828125 1845.320312 846.828125 C 1844.480469 848.058594 1844.148438 849.570312 1844.429688 851.03125 C 1844.699219 852.5 1845.539062 853.800781 1846.769531 854.640625 C 1848 855.480469 1849.519531 855.800781 1850.988281 855.519531 C 1852.449219 855.238281 1853.75 854.390625 1854.589844 853.148438 C 1854.589844 853.148438 1866.519531 835.898438 1885.5 825.660156 C 1904.480469 815.429688 1929.300781 811.390625 1959.839844 839.058594 C 1960.941406 840.058594 1962.398438 840.578125 1963.890625 840.511719 C 1965.378906 840.429688 1966.789062 839.769531 1967.789062 838.660156 C 1968.789062 837.558594 1969.308594 836.101562 1969.230469 834.609375 C 1969.160156 833.109375 1968.5 831.710938 1967.390625 830.710938 C 1950.710938 815.601562 1934.390625 808.910156 1919.480469 807.480469 Z M 1919.480469 807.480469 "/>
</svg>
